<svg width="441" height="113" viewBox="0 0 441 113" fill="none" xmlns="http://www.w3.org/2000/svg">
<path d="M31.5227 88H0.585227V0.72727H31.7784C40.5568 0.72727 48.1136 2.47443 54.4489 5.96875C60.7841 9.43466 65.6563 14.4205 69.0653 20.9261C72.5028 27.4318 74.2216 35.2159 74.2216 44.2784C74.2216 53.3693 72.5028 61.1818 69.0653 67.7159C65.6563 74.25 60.7557 79.2642 54.3636 82.7585C48 86.2528 40.3864 88 31.5227 88ZM19.0369 72.1903H30.7557C36.2102 72.1903 40.7983 71.2244 44.5199 69.2926C48.2699 67.3324 51.0824 64.3068 52.9574 60.2159C54.8608 56.0966 55.8125 50.7841 55.8125 44.2784C55.8125 37.8295 54.8608 32.5597 52.9574 28.4688C51.0824 24.3778 48.2841 21.3665 44.5625 19.4347C40.8409 17.5028 36.2528 16.5369 30.7983 16.5369H19.0369V72.1903Z" fill="#3EABEE"/>
<path d="M117.123 89.2784C110.504 89.2784 104.779 87.8722 99.9496 85.0597C95.1484 82.2187 91.4411 78.2699 88.8274 73.2131C86.2138 68.1278 84.907 62.233 84.907 55.5284C84.907 48.767 86.2138 42.858 88.8274 37.8011C91.4411 32.7159 95.1484 28.767 99.9496 25.9545C104.779 23.1136 110.504 21.6932 117.123 21.6932C123.742 21.6932 129.452 23.1136 134.254 25.9545C139.083 28.767 142.805 32.7159 145.418 37.8011C148.032 42.858 149.339 48.767 149.339 55.5284C149.339 62.233 148.032 68.1278 145.418 73.2131C142.805 78.2699 139.083 82.2187 134.254 85.0597C129.452 87.8722 123.742 89.2784 117.123 89.2784ZM117.208 75.2159C120.219 75.2159 122.734 74.3636 124.751 72.6591C126.768 70.9261 128.288 68.5682 129.31 65.5852C130.362 62.6023 130.887 59.2074 130.887 55.4006C130.887 51.5938 130.362 48.1989 129.31 45.2159C128.288 42.233 126.768 39.875 124.751 38.142C122.734 36.4091 120.219 35.5426 117.208 35.5426C114.168 35.5426 111.612 36.4091 109.538 38.142C107.492 39.875 105.944 42.233 104.893 45.2159C103.87 48.1989 103.359 51.5938 103.359 55.4006C103.359 59.2074 103.87 62.6023 104.893 65.5852C105.944 68.5682 107.492 70.9261 109.538 72.6591C111.612 74.3636 114.168 75.2159 117.208 75.2159Z" fill="#FFD460"/>
<path d="M161.143 112.545V22.5455H179.04V33.5398H179.85C180.646 31.7784 181.796 29.9886 183.302 28.1705C184.836 26.3239 186.825 24.7898 189.268 23.5682C191.739 22.3182 194.808 21.6932 198.472 21.6932C203.245 21.6932 207.648 22.9432 211.683 25.4432C215.717 27.9148 218.941 31.6506 221.356 36.6506C223.771 41.6222 224.978 47.858 224.978 55.358C224.978 62.6591 223.799 68.8239 221.441 73.8523C219.112 78.8523 215.93 82.6449 211.896 85.2301C207.89 87.7869 203.401 89.0653 198.43 89.0653C194.907 89.0653 191.91 88.483 189.438 87.3182C186.995 86.1534 184.992 84.6903 183.43 82.929C181.867 81.1392 180.674 79.3352 179.85 77.517H179.296V112.545H161.143ZM178.913 55.2727C178.913 59.1648 179.452 62.5597 180.532 65.4574C181.612 68.3551 183.174 70.6136 185.219 72.233C187.265 73.8239 189.751 74.6193 192.677 74.6193C195.631 74.6193 198.131 73.8097 200.177 72.1903C202.222 70.5426 203.771 68.2699 204.822 65.3722C205.901 62.446 206.441 59.0795 206.441 55.2727C206.441 51.4943 205.915 48.1705 204.864 45.3011C203.813 42.4318 202.265 40.1875 200.219 38.5682C198.174 36.9489 195.66 36.1392 192.677 36.1392C189.722 36.1392 187.222 36.9205 185.177 38.483C183.16 40.0455 181.612 42.2614 180.532 45.1307C179.452 48 178.913 51.3807 178.913 55.2727ZM255.745 89.2358C251.569 89.2358 247.847 88.5114 244.58 87.0625C241.313 85.5852 238.728 83.4119 236.825 80.5426C234.95 77.6449 234.012 74.0369 234.012 69.7188C234.012 66.0824 234.68 63.0284 236.015 60.5568C237.35 58.0852 239.168 56.0966 241.469 54.5909C243.771 53.0852 246.384 51.9489 249.31 51.1818C252.265 50.4148 255.362 49.875 258.6 49.5625C262.407 49.1648 265.475 48.7955 267.805 48.4545C270.134 48.0852 271.825 47.5455 272.876 46.8352C273.927 46.125 274.452 45.0739 274.452 43.6818V43.4261C274.452 40.7273 273.6 38.6392 271.896 37.1619C270.219 35.6847 267.833 34.946 264.737 34.946C261.469 34.946 258.87 35.6705 256.938 37.1193C255.006 38.5398 253.728 40.3295 253.103 42.4886L236.313 41.125C237.165 37.1477 238.842 33.7102 241.342 30.8125C243.842 27.8864 247.066 25.642 251.015 24.0795C254.992 22.4886 259.594 21.6932 264.822 21.6932C268.458 21.6932 271.938 22.1193 275.262 22.9716C278.614 23.8239 281.583 25.1449 284.168 26.9347C286.782 28.7244 288.842 31.0256 290.347 33.8381C291.853 36.6222 292.606 39.9602 292.606 43.8523V88H275.39V78.9233H274.879C273.827 80.9688 272.421 82.7727 270.66 84.3352C268.898 85.8693 266.782 87.0767 264.31 87.9574C261.839 88.8097 258.984 89.2358 255.745 89.2358ZM260.944 76.7074C263.614 76.7074 265.972 76.1818 268.018 75.1307C270.063 74.0511 271.668 72.6023 272.833 70.7841C273.998 68.9659 274.58 66.9062 274.58 64.6051V57.6591C274.012 58.0284 273.231 58.3693 272.237 58.6818C271.271 58.9659 270.177 59.2358 268.955 59.4915C267.734 59.7187 266.512 59.9318 265.29 60.1307C264.069 60.3011 262.961 60.4574 261.967 60.5994C259.836 60.9119 257.975 61.4091 256.384 62.0909C254.793 62.7727 253.558 63.696 252.677 64.8608C251.796 65.9972 251.356 67.4176 251.356 69.1222C251.356 71.5938 252.251 73.483 254.04 74.7898C255.859 76.0682 258.16 76.7074 260.944 76.7074ZM324.843 50.1591V88H306.69V22.5455H323.991V34.0938H324.758C326.207 30.2869 328.636 27.2756 332.045 25.0597C335.454 22.8153 339.587 21.6932 344.445 21.6932C348.991 21.6932 352.954 22.6875 356.335 24.6761C359.715 26.6648 362.343 29.5057 364.218 33.1989C366.093 36.8636 367.031 41.2386 367.031 46.3239V88H348.877V49.5625C348.906 45.5568 347.883 42.4318 345.809 40.1875C343.735 37.9148 340.88 36.7784 337.244 36.7784C334.8 36.7784 332.641 37.304 330.766 38.3551C328.92 39.4062 327.471 40.9403 326.42 42.9574C325.397 44.946 324.871 47.3466 324.843 50.1591ZM390.202 112.545C387.901 112.545 385.741 112.361 383.724 111.991C381.736 111.651 380.088 111.21 378.781 110.67L382.872 97.1193C385.003 97.7727 386.92 98.1278 388.625 98.1847C390.358 98.2415 391.849 97.8438 393.099 96.9915C394.378 96.1392 395.415 94.6903 396.21 92.6449L397.276 89.875L373.795 22.5455H392.886L406.438 70.6136H407.119L420.798 22.5455H440.017L414.577 95.0739C413.355 98.5966 411.693 101.665 409.591 104.278C407.517 106.92 404.889 108.952 401.707 110.372C398.526 111.821 394.69 112.545 390.202 112.545Z" fill="#FE8285"/>
</svg>
